<?xml version="1.0" encoding="UTF-8" standalone="no"?>
<!-- Created with Inkscape (http://www.inkscape.org/) -->

<svg
   version="1.1"
   id="svg2"
   xml:space="preserve"
   width="180.57333"
   height="128.37334"
   viewBox="0 0 180.57334 128.37334"
   sodipodi:docname="SmartSupport-icon.svg"
   inkscape:version="1.1.2 (0a00cf5339, 2022-02-04)"
   inkscape:export-filename="/home/john/Documents/sites/smartsupport/logo/SmartSupport-cion.png"
   inkscape:export-xdpi="96"
   inkscape:export-ydpi="96"
   xmlns:inkscape="http://www.inkscape.org/namespaces/inkscape"
   xmlns:sodipodi="http://sodipodi.sourceforge.net/DTD/sodipodi-0.dtd"
   xmlns="http://www.w3.org/2000/svg"
   xmlns:svg="http://www.w3.org/2000/svg"><defs
     id="defs6" /><sodipodi:namedview
     id="namedview4"
     pagecolor="#ffffff"
     bordercolor="#666666"
     borderopacity="1.0"
     inkscape:pageshadow="2"
     inkscape:pageopacity="0.0"
     inkscape:pagecheckerboard="0"
     showgrid="false"
     inkscape:zoom="1"
     inkscape:cx="423.5"
     inkscape:cy="108"
     inkscape:window-width="1920"
     inkscape:window-height="1022"
     inkscape:window-x="0"
     inkscape:window-y="0"
     inkscape:window-maximized="1"
     inkscape:current-layer="g10" /><g
     id="g8"
     inkscape:groupmode="layer"
     inkscape:label="ink_ext_XXXXXX"
     transform="matrix(1.3333333,0,0,-1.3333333,-351.36998,1532.5845)"><g
       id="g10"
       transform="scale(0.1)"><text
         xml:space="preserve"
         style="font-style:normal;font-weight:normal;font-size:300px;line-height:1.25;font-family:sans-serif;letter-spacing:0px;word-spacing:0px;fill:#000000;fill-opacity:1;stroke:none;stroke-width:7.5"
         x="3641.7542"
         y="-9821.1973"
         id="text5656"
         transform="scale(1,-1)"><tspan
           sodipodi:role="line"
           id="tspan5654"
           style="stroke-width:7.5"
           x="3641.7542"
           y="-9821.1973" /></text><g
         id="g39602"
         inkscape:export-filename="/home/john/Documents/sites/smartsupport/logo/g39602.png"
         inkscape:export-xdpi="96"
         inkscape:export-ydpi="96"><path
           d="m 2849.5249,11210.084 c 0,-59.2 -47.96,-107.2 -107.13,-107.2 -59.16,0 -107.12,48 -107.12,107.2 0,59.1 47.96,107.1 107.12,107.1 59.17,0 107.13,-48 107.13,-107.1"
           style="fill:#7feffd;fill-opacity:1;fill-rule:nonzero;stroke:none"
           id="path226-1" /><path
           d="m 2849.5249,10924.384 c 0,-59.2 -47.96,-107.1 -107.13,-107.1 -59.16,0 -107.12,47.9 -107.12,107.1 0,59.2 47.96,107.1 107.12,107.1 59.17,0 107.13,-47.9 107.13,-107.1"
           style="fill:#3ec5fd;fill-opacity:1;fill-rule:nonzero;stroke:none"
           id="path228-2" /><path
           d="m 2849.5249,10638.684 c 0,-59.1 -47.96,-107.1 -107.13,-107.1 -59.16,0 -107.12,48 -107.12,107.1 0,59.2 47.96,107.1 107.12,107.1 59.17,0 107.13,-47.9 107.13,-107.1"
           style="fill:#3993fe;fill-opacity:1;fill-rule:nonzero;stroke:none"
           id="path230-7" /><path
           d="m 2989.7149,11494.384 v 0 l -169.84,-119.1 c 18.99,-9 36.21,-21.1 50.96,-35.7 l 118.88,83.4 h 898.05 l -252.64,-177.2 h -713.74 c 2.3,-11.6 3.53,-23.5 3.53,-35.7 0,-12.3 -1.23,-24.2 -3.53,-35.7 h 713.74 l 354.45,248.6 v 71.4 h -999.86"
           style="fill:#393536;fill-opacity:1;fill-rule:nonzero;stroke:none"
           id="path232-0" /><path
           d="m 2921.3849,10960.084 c 2.3,-11.5 3.53,-23.5 3.53,-35.7 0,-12.2 -1.23,-24.2 -3.53,-35.7 h 713.74 l 354.45,248.6 v 71.4 l -354.45,-248.6 h -713.74"
           style="fill:#393536;fill-opacity:1;fill-rule:nonzero;stroke:none"
           id="path234-9" /><path
           d="m 2921.3849,10674.384 c 2.3,-11.5 3.53,-23.5 3.53,-35.7 0,-12.2 -1.23,-24.1 -3.53,-35.7 h 713.74 l 354.45,248.7 v 71.4 l -354.45,-248.7 h -713.74"
           style="fill:#393536;fill-opacity:1;fill-rule:nonzero;stroke:none"
           id="path236-3" /><path
           d="m 2849.5249,11210.084 c 0,-59.2 -47.96,-107.2 -107.13,-107.2 -59.16,0 -107.12,48 -107.12,107.2 0,59.1 47.96,107.1 107.12,107.1 59.17,0 107.13,-48 107.13,-107.1"
           style="fill:#7feffd;fill-opacity:1;fill-rule:nonzero;stroke:none"
           id="path226-2" /><path
           d="m 2849.5249,10924.384 c 0,-59.2 -47.96,-107.1 -107.13,-107.1 -59.16,0 -107.12,47.9 -107.12,107.1 0,59.2 47.96,107.1 107.12,107.1 59.17,0 107.13,-47.9 107.13,-107.1"
           style="fill:#3ec5fd;fill-opacity:1;fill-rule:nonzero;stroke:none"
           id="path228-6" /><path
           d="m 2849.5249,10638.684 c 0,-59.1 -47.96,-107.1 -107.13,-107.1 -59.16,0 -107.12,48 -107.12,107.1 0,59.2 47.96,107.1 107.12,107.1 59.17,0 107.13,-47.9 107.13,-107.1"
           style="fill:#3993fe;fill-opacity:1;fill-rule:nonzero;stroke:none"
           id="path230-1" /><path
           d="m 2989.7149,11494.384 v 0 l -169.84,-119.1 c 18.99,-9 36.21,-21.1 50.96,-35.7 l 118.88,83.4 h 898.05 l -252.64,-177.2 h -713.74 c 2.3,-11.6 3.53,-23.5 3.53,-35.7 0,-12.3 -1.23,-24.2 -3.53,-35.7 h 713.74 l 354.45,248.6 v 71.4 h -999.86"
           style="fill:#393536;fill-opacity:1;fill-rule:nonzero;stroke:none"
           id="path232-8" /><path
           d="m 2921.3849,10960.084 c 2.3,-11.5 3.53,-23.5 3.53,-35.7 0,-12.2 -1.23,-24.2 -3.53,-35.7 h 713.74 l 354.45,248.6 v 71.4 l -354.45,-248.6 h -713.74"
           style="fill:#393536;fill-opacity:1;fill-rule:nonzero;stroke:none"
           id="path234-7" /><path
           d="m 2921.3849,10674.384 c 2.3,-11.5 3.53,-23.5 3.53,-35.7 0,-12.2 -1.23,-24.1 -3.53,-35.7 h 713.74 l 354.45,248.7 v 71.4 l -354.45,-248.7 h -713.74"
           style="fill:#393536;fill-opacity:1;fill-rule:nonzero;stroke:none"
           id="path236-9" /></g></g></g></svg>
